<svg xmlns="http://www.w3.org/2000/svg" xmlns:xlink="http://www.w3.org/1999/xlink" width="500" zoomAndPan="magnify" viewBox="0 0 375 374.999991" height="500" preserveAspectRatio="xMidYMid meet" version="1.0"><defs><g/><clipPath id="d0f7409307"><rect x="0" width="304" y="0" height="51"/></clipPath></defs><g transform="matrix(1, 0, 0, 1, 36, 163)"><g clip-path="url(#d0f7409307)"><g fill="#ffbd59" fill-opacity="1"><g transform="translate(0.553713, 27.510558)"><g><path d="M 4.296875 0.15625 C 3.816406 0.15625 3.410156 -0.00390625 3.078125 -0.328125 C 2.742188 -0.660156 2.578125 -1.0625 2.578125 -1.53125 L 2.578125 -23.90625 C 2.578125 -24.382812 2.742188 -24.789062 3.078125 -25.125 C 3.421875 -25.457031 3.828125 -25.625 4.296875 -25.625 L 11.53125 -25.625 C 12.800781 -25.625 14.007812 -25.382812 15.15625 -24.90625 C 16.300781 -24.4375 17.3125 -23.773438 18.1875 -22.921875 C 19.039062 -22.078125 19.707031 -21.0625 20.1875 -19.875 C 20.675781 -18.695312 20.921875 -17.46875 20.921875 -16.1875 C 20.921875 -14.925781 20.679688 -13.734375 20.203125 -12.609375 C 19.722656 -11.484375 19.050781 -10.5 18.1875 -9.65625 C 17.3125 -8.8125 16.296875 -8.148438 15.140625 -7.671875 C 13.992188 -7.203125 12.785156 -6.96875 11.515625 -6.96875 L 6.015625 -6.96875 L 6.015625 -1.53125 C 6.015625 -1.050781 5.847656 -0.648438 5.515625 -0.328125 C 5.179688 -0.00390625 4.773438 0.15625 4.296875 0.15625 Z M 6.015625 -10.390625 L 11.578125 -10.390625 C 12.398438 -10.390625 13.171875 -10.546875 13.890625 -10.859375 C 14.609375 -11.179688 15.242188 -11.617188 15.796875 -12.171875 C 16.328125 -12.703125 16.734375 -13.3125 17.015625 -14 C 17.296875 -14.695312 17.4375 -15.425781 17.4375 -16.1875 C 17.4375 -16.9375 17.285156 -17.679688 16.984375 -18.421875 C 16.691406 -19.171875 16.285156 -19.816406 15.765625 -20.359375 C 15.222656 -20.910156 14.59375 -21.347656 13.875 -21.671875 C 13.15625 -21.992188 12.394531 -22.15625 11.59375 -22.15625 L 6.015625 -22.15625 Z M 6.015625 -10.390625 "/></g></g></g><g fill="#000000" fill-opacity="1"><g transform="translate(20.253809, 27.510558)"><g><path d="M 10.328125 0.234375 C 9.046875 0.234375 7.832031 -0.00390625 6.6875 -0.484375 C 5.550781 -0.972656 4.550781 -1.660156 3.6875 -2.546875 C 2.820312 -3.410156 2.144531 -4.414062 1.65625 -5.5625 C 1.175781 -6.71875 0.9375 -7.945312 0.9375 -9.25 C 0.9375 -10.539062 1.175781 -11.757812 1.65625 -12.90625 C 2.144531 -14.0625 2.820312 -15.082031 3.6875 -15.96875 C 4.550781 -16.84375 5.550781 -17.523438 6.6875 -18.015625 C 7.832031 -18.503906 9.046875 -18.75 10.328125 -18.75 C 11.609375 -18.75 12.816406 -18.507812 13.953125 -18.03125 C 15.085938 -17.550781 16.085938 -16.875 16.953125 -16 C 17.804688 -15.132812 18.476562 -14.128906 18.96875 -12.984375 C 19.457031 -11.847656 19.710938 -10.640625 19.734375 -9.359375 L 19.734375 -1.625 C 19.734375 -1.132812 19.5625 -0.71875 19.21875 -0.375 C 18.882812 -0.03125 18.472656 0.140625 17.984375 0.140625 C 17.492188 0.140625 17.09375 -0.0234375 16.78125 -0.359375 C 16.46875 -0.703125 16.3125 -1.125 16.3125 -1.625 L 16.296875 -1.90625 C 15.460938 -1.21875 14.535156 -0.6875 13.515625 -0.3125 C 12.503906 0.0507812 11.441406 0.234375 10.328125 0.234375 Z M 10.328125 -3.203125 C 11.171875 -3.203125 11.953125 -3.359375 12.671875 -3.671875 C 13.398438 -3.984375 14.046875 -4.421875 14.609375 -4.984375 C 15.148438 -5.546875 15.566406 -6.191406 15.859375 -6.921875 C 16.160156 -7.648438 16.3125 -8.425781 16.3125 -9.25 C 16.3125 -10.0625 16.160156 -10.832031 15.859375 -11.5625 C 15.566406 -12.300781 15.148438 -12.945312 14.609375 -13.5 C 14.046875 -14.050781 13.398438 -14.484375 12.671875 -14.796875 C 11.941406 -15.109375 11.160156 -15.265625 10.328125 -15.265625 C 9.503906 -15.265625 8.726562 -15.109375 8 -14.796875 C 7.28125 -14.484375 6.644531 -14.050781 6.09375 -13.5 C 5.550781 -12.945312 5.128906 -12.300781 4.828125 -11.5625 C 4.523438 -10.832031 4.375 -10.0625 4.375 -9.25 C 4.375 -8.425781 4.523438 -7.648438 4.828125 -6.921875 C 5.128906 -6.191406 5.550781 -5.546875 6.09375 -4.984375 C 6.644531 -4.421875 7.28125 -3.984375 8 -3.671875 C 8.726562 -3.359375 9.503906 -3.203125 10.328125 -3.203125 Z M 10.328125 -3.203125 "/></g></g></g><g fill="#000000" fill-opacity="1"><g transform="translate(39.847995, 27.510558)"><g><path d="M 10.703125 0 L 2.640625 0 C 2.191406 0 1.816406 -0.160156 1.515625 -0.484375 C 1.210938 -0.804688 1.0625 -1.226562 1.0625 -1.75 C 1.0625 -2.25 1.207031 -2.648438 1.5 -2.953125 C 1.789062 -3.265625 2.171875 -3.421875 2.640625 -3.421875 L 10.40625 -3.421875 C 10.695312 -3.421875 10.984375 -3.46875 11.265625 -3.5625 C 11.546875 -3.65625 11.804688 -3.800781 12.046875 -4 C 12.554688 -4.425781 12.8125 -4.988281 12.8125 -5.6875 C 12.8125 -6.363281 12.566406 -6.890625 12.078125 -7.265625 C 11.578125 -7.617188 11.03125 -7.800781 10.4375 -7.8125 L 6.8125 -7.8125 C 6.0625 -7.8125 5.351562 -7.957031 4.6875 -8.25 C 4.03125 -8.550781 3.453125 -8.96875 2.953125 -9.5 C 2.460938 -10 2.082031 -10.585938 1.8125 -11.265625 C 1.539062 -11.953125 1.40625 -12.664062 1.40625 -13.40625 C 1.40625 -14.125 1.546875 -14.8125 1.828125 -15.46875 C 2.109375 -16.125 2.492188 -16.695312 2.984375 -17.1875 C 3.484375 -17.675781 4.0625 -18.054688 4.71875 -18.328125 C 5.375 -18.609375 6.070312 -18.75 6.8125 -18.75 L 13.5625 -18.75 C 14.050781 -18.75 14.457031 -18.597656 14.78125 -18.296875 C 15.101562 -17.992188 15.265625 -17.585938 15.265625 -17.078125 C 15.265625 -16.585938 15.109375 -16.171875 14.796875 -15.828125 C 14.472656 -15.484375 14.09375 -15.3125 13.65625 -15.3125 L 6.84375 -15.3125 C 6.289062 -15.3125 5.816406 -15.109375 5.421875 -14.703125 C 5.035156 -14.304688 4.84375 -13.832031 4.84375 -13.28125 C 4.84375 -12.6875 5.039062 -12.207031 5.4375 -11.84375 C 5.851562 -11.457031 6.320312 -11.265625 6.84375 -11.265625 L 10.734375 -11.265625 C 11.503906 -11.265625 12.234375 -11.113281 12.921875 -10.8125 C 13.609375 -10.519531 14.195312 -10.109375 14.6875 -9.578125 C 15.175781 -9.054688 15.554688 -8.445312 15.828125 -7.75 C 16.097656 -7.0625 16.234375 -6.347656 16.234375 -5.609375 C 16.234375 -4.035156 15.710938 -2.722656 14.671875 -1.671875 C 14.160156 -1.140625 13.566406 -0.726562 12.890625 -0.4375 C 12.210938 -0.144531 11.484375 0 10.703125 0 Z M 10.703125 0 "/></g></g></g><g fill="#000000" fill-opacity="1"><g transform="translate(55.032405, 27.510558)"><g><path d="M 10.703125 0 L 2.640625 0 C 2.191406 0 1.816406 -0.160156 1.515625 -0.484375 C 1.210938 -0.804688 1.0625 -1.226562 1.0625 -1.75 C 1.0625 -2.25 1.207031 -2.648438 1.5 -2.953125 C 1.789062 -3.265625 2.171875 -3.421875 2.640625 -3.421875 L 10.40625 -3.421875 C 10.695312 -3.421875 10.984375 -3.46875 11.265625 -3.5625 C 11.546875 -3.65625 11.804688 -3.800781 12.046875 -4 C 12.554688 -4.425781 12.8125 -4.988281 12.8125 -5.6875 C 12.8125 -6.363281 12.566406 -6.890625 12.078125 -7.265625 C 11.578125 -7.617188 11.03125 -7.800781 10.4375 -7.8125 L 6.8125 -7.8125 C 6.0625 -7.8125 5.351562 -7.957031 4.6875 -8.25 C 4.03125 -8.550781 3.453125 -8.96875 2.953125 -9.5 C 2.460938 -10 2.082031 -10.585938 1.8125 -11.265625 C 1.539062 -11.953125 1.40625 -12.664062 1.40625 -13.40625 C 1.40625 -14.125 1.546875 -14.8125 1.828125 -15.46875 C 2.109375 -16.125 2.492188 -16.695312 2.984375 -17.1875 C 3.484375 -17.675781 4.0625 -18.054688 4.71875 -18.328125 C 5.375 -18.609375 6.070312 -18.75 6.8125 -18.75 L 13.5625 -18.75 C 14.050781 -18.75 14.457031 -18.597656 14.78125 -18.296875 C 15.101562 -17.992188 15.265625 -17.585938 15.265625 -17.078125 C 15.265625 -16.585938 15.109375 -16.171875 14.796875 -15.828125 C 14.472656 -15.484375 14.09375 -15.3125 13.65625 -15.3125 L 6.84375 -15.3125 C 6.289062 -15.3125 5.816406 -15.109375 5.421875 -14.703125 C 5.035156 -14.304688 4.84375 -13.832031 4.84375 -13.28125 C 4.84375 -12.6875 5.039062 -12.207031 5.4375 -11.84375 C 5.851562 -11.457031 6.320312 -11.265625 6.84375 -11.265625 L 10.734375 -11.265625 C 11.503906 -11.265625 12.234375 -11.113281 12.921875 -10.8125 C 13.609375 -10.519531 14.195312 -10.109375 14.6875 -9.578125 C 15.175781 -9.054688 15.554688 -8.445312 15.828125 -7.75 C 16.097656 -7.0625 16.234375 -6.347656 16.234375 -5.609375 C 16.234375 -4.035156 15.710938 -2.722656 14.671875 -1.671875 C 14.160156 -1.140625 13.566406 -0.726562 12.890625 -0.4375 C 12.210938 -0.144531 11.484375 0 10.703125 0 Z M 10.703125 0 "/></g></g></g><g fill="#ffbd59" fill-opacity="1"><g transform="translate(70.231041, 27.510558)"><g><path d="M 8.203125 0.234375 C 7.328125 0.234375 6.503906 0.0703125 5.734375 -0.25 C 4.960938 -0.582031 4.285156 -1.050781 3.703125 -1.65625 C 3.109375 -2.238281 2.644531 -2.914062 2.3125 -3.6875 C 1.988281 -4.46875 1.828125 -5.289062 1.828125 -6.15625 L 1.828125 -17.015625 C 1.828125 -17.503906 1.992188 -17.910156 2.328125 -18.234375 C 2.671875 -18.554688 3.078125 -18.71875 3.546875 -18.71875 C 4.003906 -18.71875 4.398438 -18.550781 4.734375 -18.21875 C 5.078125 -17.882812 5.25 -17.484375 5.25 -17.015625 L 5.296875 -6.21875 C 5.296875 -6.207031 5.289062 -6.171875 5.28125 -6.109375 C 5.28125 -6.046875 5.273438 -5.972656 5.265625 -5.890625 C 5.367188 -5.148438 5.707031 -4.535156 6.28125 -4.046875 C 6.84375 -3.535156 7.5 -3.28125 8.25 -3.28125 C 9.101562 -3.28125 9.820312 -3.601562 10.40625 -4.25 C 10.957031 -4.875 11.234375 -5.625 11.234375 -6.5 L 11.234375 -17 C 11.234375 -17.488281 11.394531 -17.894531 11.71875 -18.21875 C 12.050781 -18.550781 12.457031 -18.71875 12.9375 -18.71875 C 13.40625 -18.71875 13.804688 -18.550781 14.140625 -18.21875 C 14.472656 -17.882812 14.640625 -17.476562 14.640625 -17 L 14.640625 -6.296875 C 14.640625 -6.148438 14.632812 -6.070312 14.625 -6.0625 C 14.6875 -5.269531 15 -4.625 15.5625 -4.125 C 16.125 -3.59375 16.789062 -3.328125 17.5625 -3.328125 C 17.976562 -3.328125 18.375 -3.40625 18.75 -3.5625 C 19.125 -3.726562 19.453125 -3.953125 19.734375 -4.234375 C 20.328125 -4.828125 20.625 -5.535156 20.625 -6.359375 L 20.625 -17.015625 C 20.625 -17.503906 20.789062 -17.910156 21.125 -18.234375 C 21.457031 -18.554688 21.863281 -18.71875 22.34375 -18.71875 C 22.820312 -18.71875 23.222656 -18.554688 23.546875 -18.234375 C 23.878906 -17.910156 24.046875 -17.503906 24.046875 -17.015625 L 24.046875 -6.15625 C 24.046875 -5.289062 23.875 -4.472656 23.53125 -3.703125 C 23.1875 -2.929688 22.71875 -2.25 22.125 -1.65625 C 21.519531 -1.050781 20.820312 -0.582031 20.03125 -0.25 C 19.238281 0.0703125 18.410156 0.234375 17.546875 0.234375 C 16.617188 0.234375 15.753906 0.0546875 14.953125 -0.296875 C 14.160156 -0.648438 13.46875 -1.15625 12.875 -1.8125 C 12.269531 -1.15625 11.566406 -0.648438 10.765625 -0.296875 C 9.972656 0.0546875 9.117188 0.234375 8.203125 0.234375 Z M 8.203125 0.234375 "/></g></g></g><g fill="#000000" fill-opacity="1"><g transform="translate(93.893963, 27.510558)"><g><path d="M 10.328125 0.234375 C 9.046875 0.234375 7.832031 -0.00390625 6.6875 -0.484375 C 5.539062 -0.972656 4.53125 -1.660156 3.65625 -2.546875 C 2.769531 -3.410156 2.082031 -4.421875 1.59375 -5.578125 C 1.101562 -6.742188 0.859375 -7.96875 0.859375 -9.25 C 0.859375 -10.53125 1.101562 -11.75 1.59375 -12.90625 C 2.082031 -14.0625 2.769531 -15.082031 3.65625 -15.96875 C 4.53125 -16.84375 5.539062 -17.523438 6.6875 -18.015625 C 7.832031 -18.503906 9.046875 -18.75 10.328125 -18.75 C 11.628906 -18.75 12.859375 -18.5 14.015625 -18 C 15.171875 -17.507812 16.179688 -16.832031 17.046875 -15.96875 C 17.921875 -15.082031 18.597656 -14.0625 19.078125 -12.90625 C 19.566406 -11.757812 19.8125 -10.539062 19.8125 -9.25 C 19.8125 -7.945312 19.566406 -6.71875 19.078125 -5.5625 C 18.597656 -4.414062 17.921875 -3.410156 17.046875 -2.546875 C 16.179688 -1.679688 15.171875 -1 14.015625 -0.5 C 12.859375 -0.0078125 11.628906 0.234375 10.328125 0.234375 Z M 10.328125 -3.203125 C 11.171875 -3.203125 11.957031 -3.359375 12.6875 -3.671875 C 13.425781 -3.984375 14.070312 -4.421875 14.625 -4.984375 C 15.1875 -5.546875 15.617188 -6.191406 15.921875 -6.921875 C 16.222656 -7.648438 16.375 -8.425781 16.375 -9.25 C 16.375 -10.0625 16.222656 -10.832031 15.921875 -11.5625 C 15.617188 -12.300781 15.1875 -12.945312 14.625 -13.5 C 14.070312 -14.050781 13.425781 -14.484375 12.6875 -14.796875 C 11.957031 -15.109375 11.171875 -15.265625 10.328125 -15.265625 C 9.503906 -15.265625 8.722656 -15.109375 7.984375 -14.796875 C 7.253906 -14.484375 6.613281 -14.050781 6.0625 -13.5 C 5.5 -12.945312 5.0625 -12.300781 4.75 -11.5625 C 4.445312 -10.832031 4.296875 -10.0625 4.296875 -9.25 C 4.296875 -8.425781 4.445312 -7.648438 4.75 -6.921875 C 5.0625 -6.191406 5.5 -5.546875 6.0625 -4.984375 C 6.613281 -4.421875 7.253906 -3.984375 7.984375 -3.671875 C 8.722656 -3.359375 9.503906 -3.203125 10.328125 -3.203125 Z M 10.328125 -3.203125 "/></g></g></g><g fill="#000000" fill-opacity="1"><g transform="translate(112.61396, 27.510558)"><g><path d="M 3.5 0 C 3.007812 0 2.597656 -0.160156 2.265625 -0.484375 C 1.910156 -0.804688 1.734375 -1.210938 1.734375 -1.703125 L 1.734375 -8.8125 C 1.734375 -10.144531 1.988281 -11.414062 2.5 -12.625 C 3.007812 -13.84375 3.71875 -14.910156 4.625 -15.828125 C 5.539062 -16.742188 6.597656 -17.457031 7.796875 -17.96875 C 8.992188 -18.488281 10.257812 -18.75 11.59375 -18.75 L 11.6875 -18.75 C 12.257812 -18.75 12.703125 -18.585938 13.015625 -18.265625 C 13.328125 -17.953125 13.484375 -17.539062 13.484375 -17.03125 C 13.484375 -16.539062 13.3125 -16.132812 12.96875 -15.8125 C 12.625 -15.488281 12.195312 -15.328125 11.6875 -15.328125 L 11.59375 -15.328125 C 10.726562 -15.328125 9.90625 -15.15625 9.125 -14.8125 C 8.351562 -14.476562 7.671875 -14.015625 7.078125 -13.421875 C 6.460938 -12.816406 5.984375 -12.117188 5.640625 -11.328125 C 5.304688 -10.535156 5.140625 -9.695312 5.140625 -8.8125 L 5.140625 -1.703125 C 5.140625 -1.210938 4.984375 -0.804688 4.671875 -0.484375 C 4.359375 -0.160156 3.96875 0 3.5 0 Z M 3.5 0 "/></g></g></g><g fill="#000000" fill-opacity="1"><g transform="translate(124.573602, 27.510558)"><g><path d="M 10.328125 0.234375 C 9.046875 0.234375 7.832031 -0.00390625 6.6875 -0.484375 C 5.539062 -0.972656 4.53125 -1.660156 3.65625 -2.546875 C 2.769531 -3.410156 2.082031 -4.421875 1.59375 -5.578125 C 1.101562 -6.742188 0.859375 -7.96875 0.859375 -9.25 C 0.859375 -10.53125 1.101562 -11.75 1.59375 -12.90625 C 2.082031 -14.0625 2.769531 -15.082031 3.65625 -15.96875 C 4.53125 -16.84375 5.539062 -17.523438 6.6875 -18.015625 C 7.832031 -18.503906 9.046875 -18.75 10.328125 -18.75 C 11.847656 -18.75 13.109375 -18.441406 14.109375 -17.828125 C 15.035156 -17.242188 15.789062 -16.394531 16.375 -15.28125 L 16.375 -23.796875 C 16.375 -24.296875 16.535156 -24.71875 16.859375 -25.0625 C 17.179688 -25.40625 17.585938 -25.578125 18.078125 -25.578125 C 18.578125 -25.578125 18.988281 -25.40625 19.3125 -25.0625 C 19.644531 -24.71875 19.8125 -24.296875 19.8125 -23.796875 L 19.8125 -9.125 C 19.800781 -7.851562 19.546875 -6.648438 19.046875 -5.515625 C 18.554688 -4.390625 17.878906 -3.394531 17.015625 -2.53125 C 16.148438 -1.65625 15.140625 -0.972656 13.984375 -0.484375 C 12.828125 -0.00390625 11.609375 0.234375 10.328125 0.234375 Z M 10.328125 -3.203125 C 11.171875 -3.203125 11.957031 -3.359375 12.6875 -3.671875 C 13.425781 -3.984375 14.070312 -4.421875 14.625 -4.984375 C 15.1875 -5.546875 15.617188 -6.191406 15.921875 -6.921875 C 16.222656 -7.648438 16.375 -8.425781 16.375 -9.25 C 16.375 -10.0625 16.222656 -10.832031 15.921875 -11.5625 C 15.617188 -12.300781 15.1875 -12.945312 14.625 -13.5 C 14.070312 -14.050781 13.425781 -14.484375 12.6875 -14.796875 C 11.957031 -15.109375 11.171875 -15.265625 10.328125 -15.265625 C 9.503906 -15.265625 8.722656 -15.109375 7.984375 -14.796875 C 7.253906 -14.484375 6.613281 -14.050781 6.0625 -13.5 C 5.5 -12.945312 5.0625 -12.300781 4.75 -11.5625 C 4.445312 -10.832031 4.296875 -10.0625 4.296875 -9.25 C 4.296875 -8.425781 4.445312 -7.648438 4.75 -6.921875 C 5.0625 -6.191406 5.5 -5.546875 6.0625 -4.984375 C 6.613281 -4.421875 7.253906 -3.984375 7.984375 -3.671875 C 8.722656 -3.359375 9.503906 -3.203125 10.328125 -3.203125 Z M 10.328125 -3.203125 "/></g></g></g><g fill="#000000" fill-opacity="1"><g transform="translate(144.167789, 27.510558)"><g><path d="M 11.671875 0.234375 C 10.378906 0.234375 9.171875 -0.0078125 8.046875 -0.5 C 6.921875 -1 5.925781 -1.691406 5.0625 -2.578125 C 4.226562 -3.460938 3.570312 -4.488281 3.09375 -5.65625 C 2.625 -6.820312 2.390625 -8.054688 2.390625 -9.359375 L 2.390625 -16.125 C 2.390625 -17.425781 2.613281 -18.660156 3.0625 -19.828125 C 3.519531 -20.992188 4.160156 -22.019531 4.984375 -22.90625 C 5.816406 -23.78125 6.789062 -24.460938 7.90625 -24.953125 C 9.03125 -25.453125 10.238281 -25.703125 11.53125 -25.703125 C 13.445312 -25.703125 15.117188 -25.25 16.546875 -24.34375 C 17.796875 -23.550781 18.835938 -22.472656 19.671875 -21.109375 C 19.921875 -20.753906 20.046875 -20.378906 20.046875 -19.984375 C 20.046875 -19.546875 19.878906 -19.160156 19.546875 -18.828125 C 19.191406 -18.472656 18.773438 -18.296875 18.296875 -18.296875 C 17.722656 -18.296875 17.304688 -18.507812 17.046875 -18.9375 C 16.429688 -20.03125 15.753906 -20.828125 15.015625 -21.328125 C 14.097656 -21.929688 12.9375 -22.234375 11.53125 -22.234375 C 10.707031 -22.234375 9.9375 -22.078125 9.21875 -21.765625 C 8.507812 -21.453125 7.90625 -21.015625 7.40625 -20.453125 C 6.894531 -19.898438 6.503906 -19.25 6.234375 -18.5 C 5.960938 -17.757812 5.828125 -16.972656 5.828125 -16.140625 L 5.828125 -9.34375 C 5.828125 -8.507812 5.972656 -7.722656 6.265625 -6.984375 C 6.554688 -6.253906 6.960938 -5.609375 7.484375 -5.046875 C 7.992188 -4.484375 8.609375 -4.039062 9.328125 -3.71875 C 10.046875 -3.40625 10.828125 -3.25 11.671875 -3.25 C 13.054688 -3.25 14.25 -3.582031 15.25 -4.25 C 16.0625 -4.8125 16.785156 -5.640625 17.421875 -6.734375 L 17.421875 -10.25 L 14.5625 -10.25 C 14.082031 -10.25 13.679688 -10.414062 13.359375 -10.75 C 13.035156 -11.09375 12.875 -11.503906 12.875 -11.984375 C 12.875 -12.453125 13.039062 -12.851562 13.375 -13.1875 C 13.707031 -13.519531 14.101562 -13.6875 14.5625 -13.6875 L 18.859375 -13.671875 C 19.335938 -13.671875 19.75 -13.507812 20.09375 -13.1875 C 20.4375 -12.875 20.609375 -12.472656 20.609375 -11.984375 L 20.609375 -6.96875 C 20.609375 -6.726562 20.582031 -6.460938 20.53125 -6.171875 C 20.476562 -5.890625 20.421875 -5.675781 20.359375 -5.53125 C 19.492188 -3.738281 18.320312 -2.335938 16.84375 -1.328125 C 15.3125 -0.285156 13.585938 0.234375 11.671875 0.234375 Z M 11.671875 0.234375 "/></g></g></g><g fill="#000000" fill-opacity="1"><g transform="translate(164.966407, 27.510558)"><g><path d="M 10.375 0.234375 C 9.09375 0.234375 7.867188 -0.0078125 6.703125 -0.5 C 5.535156 -1 4.519531 -1.679688 3.65625 -2.546875 C 2.769531 -3.410156 2.082031 -4.421875 1.59375 -5.578125 C 1.101562 -6.742188 0.859375 -7.96875 0.859375 -9.25 C 0.859375 -10.539062 1.101562 -11.765625 1.59375 -12.921875 C 2.082031 -14.085938 2.769531 -15.101562 3.65625 -15.96875 C 4.519531 -16.832031 5.535156 -17.507812 6.703125 -18 C 7.867188 -18.5 9.09375 -18.75 10.375 -18.75 C 11.644531 -18.75 12.859375 -18.503906 14.015625 -18.015625 C 15.171875 -17.523438 16.191406 -16.847656 17.078125 -15.984375 C 17.941406 -15.117188 18.625 -14.109375 19.125 -12.953125 C 19.625 -11.804688 19.878906 -10.597656 19.890625 -9.328125 C 19.890625 -8.859375 19.734375 -8.46875 19.421875 -8.15625 C 19.109375 -7.84375 18.707031 -7.6875 18.21875 -7.6875 L 4.65625 -7.6875 C 4.800781 -7.03125 5.046875 -6.421875 5.390625 -5.859375 C 5.742188 -5.304688 6.175781 -4.816406 6.6875 -4.390625 C 7.75 -3.503906 8.976562 -3.0625 10.375 -3.0625 C 11.019531 -3.0625 11.566406 -3.117188 12.015625 -3.234375 C 12.460938 -3.359375 12.910156 -3.554688 13.359375 -3.828125 C 13.722656 -4.035156 14.066406 -4.140625 14.390625 -4.140625 C 14.828125 -4.140625 15.222656 -3.960938 15.578125 -3.609375 C 15.910156 -3.242188 16.078125 -2.820312 16.078125 -2.34375 C 16.078125 -1.5625 15.507812 -0.929688 14.375 -0.453125 C 13.851562 -0.222656 13.242188 -0.0507812 12.546875 0.0625 C 11.859375 0.175781 11.132812 0.234375 10.375 0.234375 Z M 4.5625 -10.5625 L 16.375 -10.5625 C 16.125 -11.988281 15.453125 -13.15625 14.359375 -14.0625 C 13.828125 -14.5 13.222656 -14.84375 12.546875 -15.09375 C 11.867188 -15.34375 11.164062 -15.46875 10.4375 -15.46875 C 8.894531 -15.46875 7.59375 -14.992188 6.53125 -14.046875 C 6.007812 -13.609375 5.578125 -13.085938 5.234375 -12.484375 C 4.898438 -11.878906 4.675781 -11.238281 4.5625 -10.5625 Z M 4.5625 -10.5625 "/></g></g></g><g fill="#000000" fill-opacity="1"><g transform="translate(183.764109, 27.510558)"><g><path d="M 3.109375 0 C 2.617188 0 2.210938 -0.160156 1.890625 -0.484375 C 1.523438 -0.804688 1.34375 -1.207031 1.34375 -1.6875 L 1.34375 -9.59375 C 1.34375 -10.832031 1.566406 -12.007812 2.015625 -13.125 C 2.472656 -14.238281 3.109375 -15.21875 3.921875 -16.0625 C 4.753906 -16.90625 5.710938 -17.5625 6.796875 -18.03125 C 7.890625 -18.507812 9.050781 -18.75 10.28125 -18.75 C 11.519531 -18.75 12.6875 -18.507812 13.78125 -18.03125 C 14.875 -17.5625 15.84375 -16.90625 16.6875 -16.0625 C 17.5 -15.21875 18.128906 -14.238281 18.578125 -13.125 C 19.035156 -12.007812 19.265625 -10.832031 19.265625 -9.59375 L 19.265625 -1.6875 C 19.265625 -1.195312 19.101562 -0.789062 18.78125 -0.46875 C 18.457031 -0.15625 18.054688 0 17.578125 0 C 17.097656 0 16.6875 -0.15625 16.34375 -0.46875 C 16.007812 -0.789062 15.84375 -1.195312 15.84375 -1.6875 L 15.84375 -9.5625 C 15.832031 -10.332031 15.6875 -11.066406 15.40625 -11.765625 C 15.132812 -12.460938 14.742188 -13.070312 14.234375 -13.59375 C 13.722656 -14.125 13.125 -14.535156 12.4375 -14.828125 C 11.757812 -15.128906 11.039062 -15.28125 10.28125 -15.28125 C 8.695312 -15.28125 7.390625 -14.734375 6.359375 -13.640625 C 5.847656 -13.117188 5.457031 -12.507812 5.1875 -11.8125 C 4.914062 -11.113281 4.78125 -10.375 4.78125 -9.59375 L 4.78125 -1.6875 C 4.78125 -1.195312 4.617188 -0.789062 4.296875 -0.46875 C 3.984375 -0.15625 3.585938 0 3.109375 0 Z M 3.109375 0 "/></g></g></g><g fill="#000000" fill-opacity="1"><g transform="translate(202.950336, 27.510558)"><g><path d="M 10.375 0.234375 C 9.09375 0.234375 7.867188 -0.0078125 6.703125 -0.5 C 5.535156 -1 4.519531 -1.679688 3.65625 -2.546875 C 2.769531 -3.410156 2.082031 -4.421875 1.59375 -5.578125 C 1.101562 -6.742188 0.859375 -7.96875 0.859375 -9.25 C 0.859375 -10.539062 1.101562 -11.765625 1.59375 -12.921875 C 2.082031 -14.085938 2.769531 -15.101562 3.65625 -15.96875 C 4.519531 -16.832031 5.535156 -17.507812 6.703125 -18 C 7.867188 -18.5 9.09375 -18.75 10.375 -18.75 C 11.644531 -18.75 12.859375 -18.503906 14.015625 -18.015625 C 15.171875 -17.523438 16.191406 -16.847656 17.078125 -15.984375 C 17.941406 -15.117188 18.625 -14.109375 19.125 -12.953125 C 19.625 -11.804688 19.878906 -10.597656 19.890625 -9.328125 C 19.890625 -8.859375 19.734375 -8.46875 19.421875 -8.15625 C 19.109375 -7.84375 18.707031 -7.6875 18.21875 -7.6875 L 4.65625 -7.6875 C 4.800781 -7.03125 5.046875 -6.421875 5.390625 -5.859375 C 5.742188 -5.304688 6.175781 -4.816406 6.6875 -4.390625 C 7.75 -3.503906 8.976562 -3.0625 10.375 -3.0625 C 11.019531 -3.0625 11.566406 -3.117188 12.015625 -3.234375 C 12.460938 -3.359375 12.910156 -3.554688 13.359375 -3.828125 C 13.722656 -4.035156 14.066406 -4.140625 14.390625 -4.140625 C 14.828125 -4.140625 15.222656 -3.960938 15.578125 -3.609375 C 15.910156 -3.242188 16.078125 -2.820312 16.078125 -2.34375 C 16.078125 -1.5625 15.507812 -0.929688 14.375 -0.453125 C 13.851562 -0.222656 13.242188 -0.0507812 12.546875 0.0625 C 11.859375 0.175781 11.132812 0.234375 10.375 0.234375 Z M 4.5625 -10.5625 L 16.375 -10.5625 C 16.125 -11.988281 15.453125 -13.15625 14.359375 -14.0625 C 13.828125 -14.5 13.222656 -14.84375 12.546875 -15.09375 C 11.867188 -15.34375 11.164062 -15.46875 10.4375 -15.46875 C 8.894531 -15.46875 7.59375 -14.992188 6.53125 -14.046875 C 6.007812 -13.609375 5.578125 -13.085938 5.234375 -12.484375 C 4.898438 -11.878906 4.675781 -11.238281 4.5625 -10.5625 Z M 4.5625 -10.5625 "/></g></g></g><g fill="#000000" fill-opacity="1"><g transform="translate(221.748038, 27.510558)"><g><path d="M 3.5 0 C 3.007812 0 2.597656 -0.160156 2.265625 -0.484375 C 1.910156 -0.804688 1.734375 -1.210938 1.734375 -1.703125 L 1.734375 -8.8125 C 1.734375 -10.144531 1.988281 -11.414062 2.5 -12.625 C 3.007812 -13.84375 3.71875 -14.910156 4.625 -15.828125 C 5.539062 -16.742188 6.597656 -17.457031 7.796875 -17.96875 C 8.992188 -18.488281 10.257812 -18.75 11.59375 -18.75 L 11.6875 -18.75 C 12.257812 -18.75 12.703125 -18.585938 13.015625 -18.265625 C 13.328125 -17.953125 13.484375 -17.539062 13.484375 -17.03125 C 13.484375 -16.539062 13.3125 -16.132812 12.96875 -15.8125 C 12.625 -15.488281 12.195312 -15.328125 11.6875 -15.328125 L 11.59375 -15.328125 C 10.726562 -15.328125 9.90625 -15.15625 9.125 -14.8125 C 8.351562 -14.476562 7.671875 -14.015625 7.078125 -13.421875 C 6.460938 -12.816406 5.984375 -12.117188 5.640625 -11.328125 C 5.304688 -10.535156 5.140625 -9.695312 5.140625 -8.8125 L 5.140625 -1.703125 C 5.140625 -1.210938 4.984375 -0.804688 4.671875 -0.484375 C 4.359375 -0.160156 3.96875 0 3.5 0 Z M 3.5 0 "/></g></g></g><g fill="#000000" fill-opacity="1"><g transform="translate(233.70768, 27.510558)"><g><path d="M 10.328125 0.234375 C 9.046875 0.234375 7.832031 -0.00390625 6.6875 -0.484375 C 5.550781 -0.972656 4.550781 -1.660156 3.6875 -2.546875 C 2.820312 -3.410156 2.144531 -4.414062 1.65625 -5.5625 C 1.175781 -6.71875 0.9375 -7.945312 0.9375 -9.25 C 0.9375 -10.539062 1.175781 -11.757812 1.65625 -12.90625 C 2.144531 -14.0625 2.820312 -15.082031 3.6875 -15.96875 C 4.550781 -16.84375 5.550781 -17.523438 6.6875 -18.015625 C 7.832031 -18.503906 9.046875 -18.75 10.328125 -18.75 C 11.609375 -18.75 12.816406 -18.507812 13.953125 -18.03125 C 15.085938 -17.550781 16.085938 -16.875 16.953125 -16 C 17.804688 -15.132812 18.476562 -14.128906 18.96875 -12.984375 C 19.457031 -11.847656 19.710938 -10.640625 19.734375 -9.359375 L 19.734375 -1.625 C 19.734375 -1.132812 19.5625 -0.71875 19.21875 -0.375 C 18.882812 -0.03125 18.472656 0.140625 17.984375 0.140625 C 17.492188 0.140625 17.09375 -0.0234375 16.78125 -0.359375 C 16.46875 -0.703125 16.3125 -1.125 16.3125 -1.625 L 16.296875 -1.90625 C 15.460938 -1.21875 14.535156 -0.6875 13.515625 -0.3125 C 12.503906 0.0507812 11.441406 0.234375 10.328125 0.234375 Z M 10.328125 -3.203125 C 11.171875 -3.203125 11.953125 -3.359375 12.671875 -3.671875 C 13.398438 -3.984375 14.046875 -4.421875 14.609375 -4.984375 C 15.148438 -5.546875 15.566406 -6.191406 15.859375 -6.921875 C 16.160156 -7.648438 16.3125 -8.425781 16.3125 -9.25 C 16.3125 -10.0625 16.160156 -10.832031 15.859375 -11.5625 C 15.566406 -12.300781 15.148438 -12.945312 14.609375 -13.5 C 14.046875 -14.050781 13.398438 -14.484375 12.671875 -14.796875 C 11.941406 -15.109375 11.160156 -15.265625 10.328125 -15.265625 C 9.503906 -15.265625 8.726562 -15.109375 8 -14.796875 C 7.28125 -14.484375 6.644531 -14.050781 6.09375 -13.5 C 5.550781 -12.945312 5.128906 -12.300781 4.828125 -11.5625 C 4.523438 -10.832031 4.375 -10.0625 4.375 -9.25 C 4.375 -8.425781 4.523438 -7.648438 4.828125 -6.921875 C 5.128906 -6.191406 5.550781 -5.546875 6.09375 -4.984375 C 6.644531 -4.421875 7.28125 -3.984375 8 -3.671875 C 8.726562 -3.359375 9.503906 -3.203125 10.328125 -3.203125 Z M 10.328125 -3.203125 "/></g></g></g><g fill="#000000" fill-opacity="1"><g transform="translate(253.301867, 27.510558)"><g><path d="M 11.25 0.234375 C 9.9375 0.234375 8.703125 0 7.546875 -0.46875 C 6.398438 -0.945312 5.394531 -1.613281 4.53125 -2.46875 C 3.644531 -3.332031 2.957031 -4.332031 2.46875 -5.46875 C 1.976562 -6.613281 1.734375 -7.832031 1.734375 -9.125 L 1.734375 -22.625 C 1.734375 -23.101562 1.90625 -23.519531 2.25 -23.875 C 2.59375 -24.207031 2.992188 -24.375 3.453125 -24.375 C 3.929688 -24.375 4.351562 -24.207031 4.71875 -23.875 C 5.070312 -23.519531 5.25 -23.101562 5.25 -22.625 L 5.25 -18.828125 L 12.953125 -18.828125 C 13.429688 -18.828125 13.835938 -18.65625 14.171875 -18.3125 C 14.515625 -17.96875 14.6875 -17.554688 14.6875 -17.078125 C 14.6875 -16.609375 14.519531 -16.210938 14.1875 -15.890625 C 13.851562 -15.578125 13.441406 -15.421875 12.953125 -15.421875 L 5.25 -15.421875 L 5.25 -9.09375 C 5.25 -8.269531 5.398438 -7.5 5.703125 -6.78125 C 6.003906 -6.0625 6.4375 -5.429688 7 -4.890625 C 7.539062 -4.347656 8.175781 -3.925781 8.90625 -3.625 C 9.632812 -3.332031 10.414062 -3.1875 11.25 -3.1875 C 12.820312 -3.1875 14.113281 -3.648438 15.125 -4.578125 C 15.539062 -4.972656 15.976562 -5.171875 16.4375 -5.171875 C 16.820312 -5.171875 17.179688 -5.019531 17.515625 -4.71875 C 17.828125 -4.40625 17.984375 -4.023438 17.984375 -3.578125 C 17.984375 -3.003906 17.773438 -2.507812 17.359375 -2.09375 C 15.734375 -0.539062 13.695312 0.234375 11.25 0.234375 Z M 11.25 0.234375 "/></g></g></g><g fill="#000000" fill-opacity="1"><g transform="translate(269.787846, 27.510558)"><g><path d="M 10.328125 0.234375 C 9.046875 0.234375 7.832031 -0.00390625 6.6875 -0.484375 C 5.539062 -0.972656 4.53125 -1.660156 3.65625 -2.546875 C 2.769531 -3.410156 2.082031 -4.421875 1.59375 -5.578125 C 1.101562 -6.742188 0.859375 -7.96875 0.859375 -9.25 C 0.859375 -10.53125 1.101562 -11.75 1.59375 -12.90625 C 2.082031 -14.0625 2.769531 -15.082031 3.65625 -15.96875 C 4.53125 -16.84375 5.539062 -17.523438 6.6875 -18.015625 C 7.832031 -18.503906 9.046875 -18.75 10.328125 -18.75 C 11.628906 -18.75 12.859375 -18.5 14.015625 -18 C 15.171875 -17.507812 16.179688 -16.832031 17.046875 -15.96875 C 17.921875 -15.082031 18.597656 -14.0625 19.078125 -12.90625 C 19.566406 -11.757812 19.8125 -10.539062 19.8125 -9.25 C 19.8125 -7.945312 19.566406 -6.71875 19.078125 -5.5625 C 18.597656 -4.414062 17.921875 -3.410156 17.046875 -2.546875 C 16.179688 -1.679688 15.171875 -1 14.015625 -0.5 C 12.859375 -0.0078125 11.628906 0.234375 10.328125 0.234375 Z M 10.328125 -3.203125 C 11.171875 -3.203125 11.957031 -3.359375 12.6875 -3.671875 C 13.425781 -3.984375 14.070312 -4.421875 14.625 -4.984375 C 15.1875 -5.546875 15.617188 -6.191406 15.921875 -6.921875 C 16.222656 -7.648438 16.375 -8.425781 16.375 -9.25 C 16.375 -10.0625 16.222656 -10.832031 15.921875 -11.5625 C 15.617188 -12.300781 15.1875 -12.945312 14.625 -13.5 C 14.070312 -14.050781 13.425781 -14.484375 12.6875 -14.796875 C 11.957031 -15.109375 11.171875 -15.265625 10.328125 -15.265625 C 9.503906 -15.265625 8.722656 -15.109375 7.984375 -14.796875 C 7.253906 -14.484375 6.613281 -14.050781 6.0625 -13.5 C 5.5 -12.945312 5.0625 -12.300781 4.75 -11.5625 C 4.445312 -10.832031 4.296875 -10.0625 4.296875 -9.25 C 4.296875 -8.425781 4.445312 -7.648438 4.75 -6.921875 C 5.0625 -6.191406 5.5 -5.546875 6.0625 -4.984375 C 6.613281 -4.421875 7.253906 -3.984375 7.984375 -3.671875 C 8.722656 -3.359375 9.503906 -3.203125 10.328125 -3.203125 Z M 10.328125 -3.203125 "/></g></g></g><g fill="#000000" fill-opacity="1"><g transform="translate(288.507842, 27.510558)"><g><path d="M 3.5 0 C 3.007812 0 2.597656 -0.160156 2.265625 -0.484375 C 1.910156 -0.804688 1.734375 -1.210938 1.734375 -1.703125 L 1.734375 -8.8125 C 1.734375 -10.144531 1.988281 -11.414062 2.5 -12.625 C 3.007812 -13.84375 3.71875 -14.910156 4.625 -15.828125 C 5.539062 -16.742188 6.597656 -17.457031 7.796875 -17.96875 C 8.992188 -18.488281 10.257812 -18.75 11.59375 -18.75 L 11.6875 -18.75 C 12.257812 -18.75 12.703125 -18.585938 13.015625 -18.265625 C 13.328125 -17.953125 13.484375 -17.539062 13.484375 -17.03125 C 13.484375 -16.539062 13.3125 -16.132812 12.96875 -15.8125 C 12.625 -15.488281 12.195312 -15.328125 11.6875 -15.328125 L 11.59375 -15.328125 C 10.726562 -15.328125 9.90625 -15.15625 9.125 -14.8125 C 8.351562 -14.476562 7.671875 -14.015625 7.078125 -13.421875 C 6.460938 -12.816406 5.984375 -12.117188 5.640625 -11.328125 C 5.304688 -10.535156 5.140625 -9.695312 5.140625 -8.8125 L 5.140625 -1.703125 C 5.140625 -1.210938 4.984375 -0.804688 4.671875 -0.484375 C 4.359375 -0.160156 3.96875 0 3.5 0 Z M 3.5 0 "/></g></g></g><g fill="#000000" fill-opacity="1"><g transform="translate(170.698677, 47.581277)"><g><path d="M 1.671875 0.0625 C 1.484375 0.0625 1.320312 0 1.1875 -0.125 C 1.0625 -0.257812 1 -0.414062 1 -0.59375 L 1 -9.28125 C 1 -9.46875 1.0625 -9.625 1.1875 -9.75 C 1.320312 -9.882812 1.484375 -9.953125 1.671875 -9.953125 L 4.484375 -9.953125 C 4.972656 -9.953125 5.441406 -9.859375 5.890625 -9.671875 C 6.335938 -9.492188 6.726562 -9.238281 7.0625 -8.90625 C 7.394531 -8.570312 7.65625 -8.175781 7.84375 -7.71875 C 8.03125 -7.257812 8.125 -6.78125 8.125 -6.28125 C 8.125 -5.789062 8.03125 -5.328125 7.84375 -4.890625 C 7.65625 -4.453125 7.394531 -4.070312 7.0625 -3.75 C 6.726562 -3.425781 6.335938 -3.171875 5.890625 -2.984375 C 5.441406 -2.796875 4.96875 -2.703125 4.46875 -2.703125 L 2.34375 -2.703125 L 2.34375 -0.59375 C 2.34375 -0.40625 2.273438 -0.25 2.140625 -0.125 C 2.015625 0 1.859375 0.0625 1.671875 0.0625 Z M 2.34375 -4.03125 L 4.5 -4.03125 C 4.820312 -4.03125 5.117188 -4.09375 5.390625 -4.21875 C 5.671875 -4.34375 5.921875 -4.515625 6.140625 -4.734375 C 6.335938 -4.941406 6.492188 -5.175781 6.609375 -5.4375 C 6.722656 -5.707031 6.78125 -5.988281 6.78125 -6.28125 C 6.78125 -6.570312 6.71875 -6.863281 6.59375 -7.15625 C 6.476562 -7.445312 6.320312 -7.695312 6.125 -7.90625 C 5.914062 -8.125 5.671875 -8.296875 5.390625 -8.421875 C 5.109375 -8.546875 4.8125 -8.609375 4.5 -8.609375 L 2.34375 -8.609375 Z M 2.34375 -4.03125 "/></g></g></g><g fill="#000000" fill-opacity="1"><g transform="translate(178.346265, 47.581277)"><g><path d="M 4.015625 0.09375 C 3.515625 0.09375 3.039062 0 2.59375 -0.1875 C 2.15625 -0.375 1.765625 -0.640625 1.421875 -0.984375 C 1.078125 -1.328125 0.804688 -1.722656 0.609375 -2.171875 C 0.421875 -2.617188 0.328125 -3.09375 0.328125 -3.59375 C 0.328125 -4.09375 0.421875 -4.566406 0.609375 -5.015625 C 0.804688 -5.460938 1.078125 -5.859375 1.421875 -6.203125 C 1.765625 -6.546875 2.15625 -6.8125 2.59375 -7 C 3.039062 -7.1875 3.515625 -7.28125 4.015625 -7.28125 C 4.515625 -7.28125 4.988281 -7.179688 5.4375 -6.984375 C 5.894531 -6.796875 6.289062 -6.535156 6.625 -6.203125 C 6.957031 -5.859375 7.21875 -5.460938 7.40625 -5.015625 C 7.601562 -4.566406 7.703125 -4.09375 7.703125 -3.59375 C 7.703125 -3.09375 7.601562 -2.617188 7.40625 -2.171875 C 7.21875 -1.722656 6.957031 -1.328125 6.625 -0.984375 C 6.289062 -0.648438 5.894531 -0.382812 5.4375 -0.1875 C 4.988281 0 4.515625 0.09375 4.015625 0.09375 Z M 4.015625 -1.25 C 4.335938 -1.25 4.640625 -1.304688 4.921875 -1.421875 C 5.210938 -1.546875 5.46875 -1.71875 5.6875 -1.9375 C 5.894531 -2.15625 6.054688 -2.40625 6.171875 -2.6875 C 6.296875 -2.96875 6.359375 -3.269531 6.359375 -3.59375 C 6.359375 -3.90625 6.296875 -4.203125 6.171875 -4.484375 C 6.054688 -4.773438 5.894531 -5.03125 5.6875 -5.25 C 5.46875 -5.457031 5.210938 -5.625 4.921875 -5.75 C 4.640625 -5.875 4.335938 -5.9375 4.015625 -5.9375 C 3.691406 -5.9375 3.382812 -5.875 3.09375 -5.75 C 2.8125 -5.625 2.566406 -5.457031 2.359375 -5.25 C 2.140625 -5.03125 1.96875 -4.773438 1.84375 -4.484375 C 1.726562 -4.203125 1.671875 -3.90625 1.671875 -3.59375 C 1.671875 -3.269531 1.726562 -2.96875 1.84375 -2.6875 C 1.96875 -2.40625 2.140625 -2.15625 2.359375 -1.9375 C 2.566406 -1.71875 2.8125 -1.546875 3.09375 -1.421875 C 3.382812 -1.304688 3.691406 -1.25 4.015625 -1.25 Z M 4.015625 -1.25 "/></g></g></g><g fill="#000000" fill-opacity="1"><g transform="translate(185.616603, 47.581277)"><g><path d="M 3.1875 0.09375 C 2.84375 0.09375 2.519531 0.03125 2.21875 -0.09375 C 1.925781 -0.226562 1.664062 -0.410156 1.4375 -0.640625 C 1.207031 -0.867188 1.023438 -1.132812 0.890625 -1.4375 C 0.765625 -1.738281 0.703125 -2.054688 0.703125 -2.390625 L 0.703125 -6.609375 C 0.703125 -6.796875 0.769531 -6.953125 0.90625 -7.078125 C 1.039062 -7.210938 1.195312 -7.28125 1.375 -7.28125 C 1.550781 -7.28125 1.707031 -7.210938 1.84375 -7.078125 C 1.96875 -6.941406 2.03125 -6.785156 2.03125 -6.609375 L 2.0625 -2.421875 C 2.0625 -2.410156 2.054688 -2.394531 2.046875 -2.375 C 2.046875 -2.351562 2.046875 -2.320312 2.046875 -2.28125 C 2.085938 -2 2.21875 -1.757812 2.4375 -1.5625 C 2.65625 -1.375 2.910156 -1.28125 3.203125 -1.28125 C 3.535156 -1.28125 3.816406 -1.40625 4.046875 -1.65625 C 4.253906 -1.894531 4.359375 -2.1875 4.359375 -2.53125 L 4.359375 -6.609375 C 4.359375 -6.796875 4.421875 -6.953125 4.546875 -7.078125 C 4.679688 -7.210938 4.84375 -7.28125 5.03125 -7.28125 C 5.207031 -7.28125 5.363281 -7.210938 5.5 -7.078125 C 5.625 -6.941406 5.6875 -6.785156 5.6875 -6.609375 L 5.6875 -2.4375 C 5.6875 -2.382812 5.6875 -2.359375 5.6875 -2.359375 C 5.707031 -2.046875 5.828125 -1.789062 6.046875 -1.59375 C 6.265625 -1.394531 6.523438 -1.296875 6.828125 -1.296875 C 6.984375 -1.296875 7.132812 -1.328125 7.28125 -1.390625 C 7.425781 -1.453125 7.554688 -1.535156 7.671875 -1.640625 C 7.898438 -1.867188 8.015625 -2.144531 8.015625 -2.46875 L 8.015625 -6.609375 C 8.015625 -6.796875 8.078125 -6.953125 8.203125 -7.078125 C 8.328125 -7.210938 8.484375 -7.28125 8.671875 -7.28125 C 8.859375 -7.28125 9.015625 -7.210938 9.140625 -7.078125 C 9.273438 -6.953125 9.34375 -6.796875 9.34375 -6.609375 L 9.34375 -2.390625 C 9.34375 -2.054688 9.273438 -1.738281 9.140625 -1.4375 C 9.003906 -1.132812 8.820312 -0.867188 8.59375 -0.640625 C 8.351562 -0.410156 8.078125 -0.226562 7.765625 -0.09375 C 7.460938 0.03125 7.144531 0.09375 6.8125 0.09375 C 6.457031 0.09375 6.125 0.0234375 5.8125 -0.109375 C 5.5 -0.253906 5.226562 -0.453125 5 -0.703125 C 4.757812 -0.453125 4.484375 -0.253906 4.171875 -0.109375 C 3.867188 0.0234375 3.539062 0.09375 3.1875 0.09375 Z M 3.1875 0.09375 "/></g></g></g><g fill="#000000" fill-opacity="1"><g transform="translate(194.803372, 47.581277)"><g><path d="M 4.03125 0.09375 C 3.53125 0.09375 3.050781 0 2.59375 -0.1875 C 2.144531 -0.382812 1.753906 -0.648438 1.421875 -0.984375 C 1.078125 -1.328125 0.804688 -1.722656 0.609375 -2.171875 C 0.421875 -2.617188 0.328125 -3.09375 0.328125 -3.59375 C 0.328125 -4.09375 0.421875 -4.566406 0.609375 -5.015625 C 0.804688 -5.472656 1.078125 -5.867188 1.421875 -6.203125 C 1.753906 -6.535156 2.144531 -6.796875 2.59375 -6.984375 C 3.050781 -7.179688 3.53125 -7.28125 4.03125 -7.28125 C 4.519531 -7.28125 4.988281 -7.1875 5.4375 -7 C 5.894531 -6.8125 6.289062 -6.546875 6.625 -6.203125 C 6.96875 -5.867188 7.234375 -5.476562 7.421875 -5.03125 C 7.617188 -4.582031 7.722656 -4.113281 7.734375 -3.625 C 7.734375 -3.4375 7.671875 -3.28125 7.546875 -3.15625 C 7.421875 -3.039062 7.265625 -2.984375 7.078125 -2.984375 L 1.8125 -2.984375 C 1.863281 -2.734375 1.957031 -2.5 2.09375 -2.28125 C 2.226562 -2.0625 2.394531 -1.867188 2.59375 -1.703125 C 3.007812 -1.359375 3.488281 -1.1875 4.03125 -1.1875 C 4.28125 -1.1875 4.488281 -1.207031 4.65625 -1.25 C 4.832031 -1.300781 5.007812 -1.378906 5.1875 -1.484375 C 5.332031 -1.566406 5.46875 -1.609375 5.59375 -1.609375 C 5.757812 -1.609375 5.910156 -1.539062 6.046875 -1.40625 C 6.179688 -1.257812 6.25 -1.09375 6.25 -0.90625 C 6.25 -0.601562 6.023438 -0.359375 5.578125 -0.171875 C 5.378906 -0.0859375 5.144531 -0.0234375 4.875 0.015625 C 4.601562 0.0664062 4.320312 0.09375 4.03125 0.09375 Z M 1.765625 -4.109375 L 6.359375 -4.109375 C 6.265625 -4.660156 6.003906 -5.113281 5.578125 -5.46875 C 5.367188 -5.632812 5.132812 -5.765625 4.875 -5.859375 C 4.613281 -5.953125 4.335938 -6 4.046875 -6 C 3.453125 -6 2.945312 -5.816406 2.53125 -5.453125 C 2.332031 -5.285156 2.164062 -5.082031 2.03125 -4.84375 C 1.90625 -4.613281 1.816406 -4.367188 1.765625 -4.109375 Z M 1.765625 -4.109375 "/></g></g></g><g fill="#000000" fill-opacity="1"><g transform="translate(202.10389, 47.581277)"><g><path d="M 1.359375 0 C 1.171875 0 1.015625 -0.0625 0.890625 -0.1875 C 0.742188 -0.3125 0.671875 -0.46875 0.671875 -0.65625 L 0.671875 -3.421875 C 0.671875 -3.941406 0.769531 -4.4375 0.96875 -4.90625 C 1.164062 -5.375 1.441406 -5.789062 1.796875 -6.15625 C 2.148438 -6.507812 2.5625 -6.785156 3.03125 -6.984375 C 3.5 -7.179688 3.988281 -7.28125 4.5 -7.28125 L 4.546875 -7.28125 C 4.765625 -7.28125 4.929688 -7.21875 5.046875 -7.09375 C 5.171875 -6.96875 5.234375 -6.8125 5.234375 -6.625 C 5.234375 -6.425781 5.164062 -6.265625 5.03125 -6.140625 C 4.90625 -6.015625 4.742188 -5.953125 4.546875 -5.953125 L 4.5 -5.953125 C 4.164062 -5.953125 3.847656 -5.882812 3.546875 -5.75 C 3.242188 -5.625 2.976562 -5.445312 2.75 -5.21875 C 2.507812 -4.976562 2.320312 -4.703125 2.1875 -4.390625 C 2.0625 -4.085938 2 -3.765625 2 -3.421875 L 2 -0.65625 C 2 -0.46875 1.9375 -0.3125 1.8125 -0.1875 C 1.6875 -0.0625 1.535156 0 1.359375 0 Z M 1.359375 0 "/></g></g></g><g fill="#000000" fill-opacity="1"><g transform="translate(206.748565, 47.581277)"><g><path d="M 4.03125 0.09375 C 3.53125 0.09375 3.050781 0 2.59375 -0.1875 C 2.144531 -0.382812 1.753906 -0.648438 1.421875 -0.984375 C 1.078125 -1.328125 0.804688 -1.722656 0.609375 -2.171875 C 0.421875 -2.617188 0.328125 -3.09375 0.328125 -3.59375 C 0.328125 -4.09375 0.421875 -4.566406 0.609375 -5.015625 C 0.804688 -5.472656 1.078125 -5.867188 1.421875 -6.203125 C 1.753906 -6.535156 2.144531 -6.796875 2.59375 -6.984375 C 3.050781 -7.179688 3.53125 -7.28125 4.03125 -7.28125 C 4.519531 -7.28125 4.988281 -7.1875 5.4375 -7 C 5.894531 -6.8125 6.289062 -6.546875 6.625 -6.203125 C 6.96875 -5.867188 7.234375 -5.476562 7.421875 -5.03125 C 7.617188 -4.582031 7.722656 -4.113281 7.734375 -3.625 C 7.734375 -3.4375 7.671875 -3.28125 7.546875 -3.15625 C 7.421875 -3.039062 7.265625 -2.984375 7.078125 -2.984375 L 1.8125 -2.984375 C 1.863281 -2.734375 1.957031 -2.5 2.09375 -2.28125 C 2.226562 -2.0625 2.394531 -1.867188 2.59375 -1.703125 C 3.007812 -1.359375 3.488281 -1.1875 4.03125 -1.1875 C 4.28125 -1.1875 4.488281 -1.207031 4.65625 -1.25 C 4.832031 -1.300781 5.007812 -1.378906 5.1875 -1.484375 C 5.332031 -1.566406 5.46875 -1.609375 5.59375 -1.609375 C 5.757812 -1.609375 5.910156 -1.539062 6.046875 -1.40625 C 6.179688 -1.257812 6.25 -1.09375 6.25 -0.90625 C 6.25 -0.601562 6.023438 -0.359375 5.578125 -0.171875 C 5.378906 -0.0859375 5.144531 -0.0234375 4.875 0.015625 C 4.601562 0.0664062 4.320312 0.09375 4.03125 0.09375 Z M 1.765625 -4.109375 L 6.359375 -4.109375 C 6.265625 -4.660156 6.003906 -5.113281 5.578125 -5.46875 C 5.367188 -5.632812 5.132812 -5.765625 4.875 -5.859375 C 4.613281 -5.953125 4.335938 -6 4.046875 -6 C 3.453125 -6 2.945312 -5.816406 2.53125 -5.453125 C 2.332031 -5.285156 2.164062 -5.082031 2.03125 -4.84375 C 1.90625 -4.613281 1.816406 -4.367188 1.765625 -4.109375 Z M 1.765625 -4.109375 "/></g></g></g><g fill="#000000" fill-opacity="1"><g transform="translate(214.049083, 47.581277)"><g><path d="M 4.015625 0.09375 C 3.515625 0.09375 3.039062 0 2.59375 -0.1875 C 2.15625 -0.375 1.765625 -0.640625 1.421875 -0.984375 C 1.078125 -1.328125 0.804688 -1.722656 0.609375 -2.171875 C 0.421875 -2.617188 0.328125 -3.09375 0.328125 -3.59375 C 0.328125 -4.09375 0.421875 -4.566406 0.609375 -5.015625 C 0.804688 -5.460938 1.078125 -5.859375 1.421875 -6.203125 C 1.765625 -6.546875 2.15625 -6.8125 2.59375 -7 C 3.039062 -7.1875 3.515625 -7.28125 4.015625 -7.28125 C 4.597656 -7.28125 5.085938 -7.160156 5.484375 -6.921875 C 5.835938 -6.703125 6.128906 -6.375 6.359375 -5.9375 L 6.359375 -9.25 C 6.359375 -9.4375 6.421875 -9.597656 6.546875 -9.734375 C 6.671875 -9.867188 6.832031 -9.9375 7.03125 -9.9375 C 7.21875 -9.9375 7.375 -9.867188 7.5 -9.734375 C 7.632812 -9.597656 7.703125 -9.4375 7.703125 -9.25 L 7.703125 -3.546875 C 7.691406 -3.054688 7.585938 -2.585938 7.390625 -2.140625 C 7.203125 -1.703125 6.941406 -1.316406 6.609375 -0.984375 C 6.273438 -0.640625 5.882812 -0.375 5.4375 -0.1875 C 4.988281 0 4.515625 0.09375 4.015625 0.09375 Z M 4.015625 -1.25 C 4.335938 -1.25 4.640625 -1.304688 4.921875 -1.421875 C 5.210938 -1.546875 5.46875 -1.71875 5.6875 -1.9375 C 5.894531 -2.15625 6.054688 -2.40625 6.171875 -2.6875 C 6.296875 -2.96875 6.359375 -3.269531 6.359375 -3.59375 C 6.359375 -3.90625 6.296875 -4.203125 6.171875 -4.484375 C 6.054688 -4.773438 5.894531 -5.03125 5.6875 -5.25 C 5.46875 -5.457031 5.210938 -5.625 4.921875 -5.75 C 4.640625 -5.875 4.335938 -5.9375 4.015625 -5.9375 C 3.691406 -5.9375 3.382812 -5.875 3.09375 -5.75 C 2.8125 -5.625 2.566406 -5.457031 2.359375 -5.25 C 2.140625 -5.03125 1.96875 -4.773438 1.84375 -4.484375 C 1.726562 -4.203125 1.671875 -3.90625 1.671875 -3.59375 C 1.671875 -3.269531 1.726562 -2.96875 1.84375 -2.6875 C 1.96875 -2.40625 2.140625 -2.15625 2.359375 -1.9375 C 2.566406 -1.71875 2.8125 -1.546875 3.09375 -1.421875 C 3.382812 -1.304688 3.691406 -1.25 4.015625 -1.25 Z M 4.015625 -1.25 "/></g></g></g><g fill="#000000" fill-opacity="1"><g transform="translate(221.658946, 47.581277)"><g/></g></g><g fill="#000000" fill-opacity="1"><g transform="translate(224.379644, 47.581277)"><g><path d="M 4.359375 0.078125 C 3.859375 0.078125 3.382812 -0.015625 2.9375 -0.203125 C 2.488281 -0.390625 2.097656 -0.65625 1.765625 -1 C 1.421875 -1.332031 1.148438 -1.722656 0.953125 -2.171875 C 0.765625 -2.617188 0.671875 -3.09375 0.671875 -3.59375 L 0.671875 -9.25 C 0.671875 -9.425781 0.738281 -9.585938 0.875 -9.734375 C 1 -9.867188 1.15625 -9.9375 1.34375 -9.9375 C 1.53125 -9.9375 1.6875 -9.867188 1.8125 -9.734375 C 1.9375 -9.609375 2 -9.445312 2 -9.25 L 2 -5.875 C 2.1875 -6.28125 2.5 -6.613281 2.9375 -6.875 C 3.15625 -7 3.382812 -7.097656 3.625 -7.171875 C 3.863281 -7.242188 4.109375 -7.28125 4.359375 -7.28125 C 4.859375 -7.28125 5.332031 -7.179688 5.78125 -6.984375 C 6.226562 -6.796875 6.625 -6.535156 6.96875 -6.203125 C 7.300781 -5.859375 7.5625 -5.460938 7.75 -5.015625 C 7.9375 -4.566406 8.03125 -4.09375 8.03125 -3.59375 C 8.03125 -3.09375 7.9375 -2.617188 7.75 -2.171875 C 7.5625 -1.722656 7.300781 -1.332031 6.96875 -1 C 6.625 -0.65625 6.226562 -0.390625 5.78125 -0.203125 C 5.332031 -0.015625 4.859375 0.078125 4.359375 0.078125 Z M 4.359375 -1.25 C 4.679688 -1.25 4.984375 -1.304688 5.265625 -1.421875 C 5.554688 -1.546875 5.8125 -1.71875 6.03125 -1.9375 C 6.25 -2.15625 6.414062 -2.40625 6.53125 -2.6875 C 6.644531 -2.96875 6.703125 -3.269531 6.703125 -3.59375 C 6.703125 -3.914062 6.644531 -4.21875 6.53125 -4.5 C 6.414062 -4.78125 6.25 -5.03125 6.03125 -5.25 C 5.8125 -5.46875 5.554688 -5.632812 5.265625 -5.75 C 4.984375 -5.875 4.679688 -5.9375 4.359375 -5.9375 C 4.035156 -5.9375 3.726562 -5.875 3.4375 -5.75 C 3.15625 -5.632812 2.90625 -5.46875 2.6875 -5.25 C 2.476562 -5.03125 2.3125 -4.78125 2.1875 -4.5 C 2.0625 -4.21875 2 -3.914062 2 -3.59375 C 2 -3.269531 2.0625 -2.96875 2.1875 -2.6875 C 2.3125 -2.40625 2.476562 -2.15625 2.6875 -1.9375 C 2.90625 -1.71875 3.15625 -1.546875 3.4375 -1.421875 C 3.726562 -1.304688 4.035156 -1.25 4.359375 -1.25 Z M 4.359375 -1.25 "/></g></g></g><g fill="#000000" fill-opacity="1"><g transform="translate(231.989507, 47.581277)"><g><path d="M 7.25 2.28125 C 7.0625 2.28125 6.90625 2.210938 6.78125 2.078125 C 6.65625 1.953125 6.59375 1.796875 6.59375 1.609375 L 6.59375 -1.046875 C 6.269531 -0.722656 5.910156 -0.472656 5.515625 -0.296875 C 5.128906 -0.117188 4.71875 -0.03125 4.28125 -0.03125 C 3.78125 -0.03125 3.304688 -0.125 2.859375 -0.3125 C 2.410156 -0.507812 2.019531 -0.773438 1.6875 -1.109375 C 1.34375 -1.441406 1.078125 -1.832031 0.890625 -2.28125 C 0.703125 -2.726562 0.609375 -3.203125 0.609375 -3.703125 L 0.609375 -6.609375 C 0.609375 -6.796875 0.671875 -6.953125 0.796875 -7.078125 C 0.929688 -7.210938 1.097656 -7.28125 1.296875 -7.28125 C 1.472656 -7.28125 1.628906 -7.21875 1.765625 -7.09375 C 1.898438 -6.957031 1.96875 -6.796875 1.96875 -6.609375 L 1.96875 -3.671875 C 1.96875 -3.367188 2.023438 -3.078125 2.140625 -2.796875 C 2.265625 -2.523438 2.4375 -2.28125 2.65625 -2.0625 C 2.863281 -1.851562 3.109375 -1.6875 3.390625 -1.5625 C 3.671875 -1.445312 3.96875 -1.390625 4.28125 -1.390625 C 4.582031 -1.390625 4.867188 -1.445312 5.140625 -1.5625 C 5.421875 -1.6875 5.671875 -1.851562 5.890625 -2.0625 C 6.109375 -2.28125 6.28125 -2.523438 6.40625 -2.796875 C 6.53125 -3.078125 6.59375 -3.367188 6.59375 -3.671875 L 6.59375 -6.609375 C 6.59375 -6.796875 6.65625 -6.957031 6.78125 -7.09375 C 6.914062 -7.21875 7.078125 -7.28125 7.265625 -7.28125 C 7.429688 -7.28125 7.585938 -7.21875 7.734375 -7.09375 C 7.867188 -6.957031 7.9375 -6.796875 7.9375 -6.609375 L 7.9375 1.609375 C 7.9375 1.796875 7.867188 1.953125 7.734375 2.078125 C 7.597656 2.210938 7.4375 2.28125 7.25 2.28125 Z M 7.25 2.28125 "/></g></g></g><g fill="#000000" fill-opacity="1"><g transform="translate(239.667275, 47.581277)"><g/></g></g><g fill="#000000" fill-opacity="1"><g transform="translate(242.387974, 47.581277)"><g><path d="M 4.5 0.09375 C 4 0.09375 3.523438 0 3.078125 -0.1875 C 2.640625 -0.382812 2.253906 -0.65625 1.921875 -1 C 1.597656 -1.34375 1.34375 -1.738281 1.15625 -2.1875 C 0.976562 -2.644531 0.890625 -3.128906 0.890625 -3.640625 L 0.890625 -6.265625 C 0.890625 -6.773438 0.976562 -7.253906 1.15625 -7.703125 C 1.34375 -8.160156 1.597656 -8.554688 1.921875 -8.890625 C 2.253906 -9.234375 2.640625 -9.5 3.078125 -9.6875 C 3.523438 -9.882812 4 -9.984375 4.5 -9.984375 C 5.238281 -9.984375 5.882812 -9.804688 6.4375 -9.453125 C 6.925781 -9.148438 7.332031 -8.734375 7.65625 -8.203125 C 7.75 -8.054688 7.796875 -7.910156 7.796875 -7.765625 C 7.796875 -7.585938 7.734375 -7.4375 7.609375 -7.3125 C 7.472656 -7.175781 7.3125 -7.109375 7.125 -7.109375 C 6.914062 -7.109375 6.75 -7.191406 6.625 -7.359375 C 6.382812 -7.773438 6.125 -8.082031 5.84375 -8.28125 C 5.476562 -8.519531 5.03125 -8.640625 4.5 -8.640625 C 4.164062 -8.640625 3.859375 -8.578125 3.578125 -8.453125 C 3.296875 -8.328125 3.054688 -8.160156 2.859375 -7.953125 C 2.660156 -7.734375 2.503906 -7.476562 2.390625 -7.1875 C 2.273438 -6.894531 2.21875 -6.585938 2.21875 -6.265625 L 2.21875 -3.625 C 2.21875 -3.300781 2.273438 -2.992188 2.390625 -2.703125 C 2.503906 -2.421875 2.660156 -2.175781 2.859375 -1.96875 C 3.054688 -1.738281 3.296875 -1.5625 3.578125 -1.4375 C 3.859375 -1.320312 4.164062 -1.265625 4.5 -1.265625 C 5.03125 -1.265625 5.476562 -1.382812 5.84375 -1.625 C 6.144531 -1.820312 6.40625 -2.128906 6.625 -2.546875 C 6.738281 -2.703125 6.898438 -2.78125 7.109375 -2.78125 C 7.296875 -2.78125 7.460938 -2.71875 7.609375 -2.59375 C 7.734375 -2.457031 7.796875 -2.300781 7.796875 -2.125 C 7.796875 -1.976562 7.75 -1.835938 7.65625 -1.703125 C 7.3125 -1.160156 6.90625 -0.738281 6.4375 -0.4375 C 5.882812 -0.0820312 5.238281 0.09375 4.5 0.09375 Z M 4.5 0.09375 "/></g></g></g><g fill="#000000" fill-opacity="1"><g transform="translate(250.141192, 47.581277)"><g><path d="M 6.734375 0 L 1 0 C 0.8125 0 0.65625 -0.0664062 0.53125 -0.203125 C 0.394531 -0.328125 0.328125 -0.476562 0.328125 -0.65625 C 0.328125 -0.820312 0.394531 -0.976562 0.53125 -1.125 L 5.109375 -5.921875 L 1.109375 -5.921875 C 0.921875 -5.921875 0.757812 -5.984375 0.625 -6.109375 C 0.5 -6.242188 0.4375 -6.40625 0.4375 -6.59375 C 0.4375 -6.769531 0.5 -6.921875 0.625 -7.046875 C 0.757812 -7.179688 0.921875 -7.25 1.109375 -7.25 L 6.546875 -7.25 C 6.609375 -7.25 6.675781 -7.234375 6.75 -7.203125 C 6.832031 -7.171875 6.90625 -7.125 6.96875 -7.0625 C 7.113281 -6.9375 7.191406 -6.785156 7.203125 -6.609375 L 7.203125 -6.546875 C 7.203125 -6.367188 7.128906 -6.210938 6.984375 -6.078125 L 2.40625 -1.296875 L 6.734375 -1.296875 C 6.921875 -1.296875 7.078125 -1.234375 7.203125 -1.109375 C 7.335938 -0.992188 7.40625 -0.84375 7.40625 -0.65625 C 7.40625 -0.476562 7.34375 -0.328125 7.21875 -0.203125 C 7.082031 -0.0664062 6.921875 0 6.734375 0 Z M 6.734375 0 "/></g></g></g><g fill="#000000" fill-opacity="1"><g transform="translate(257.124819, 47.581277)"><g><path d="M 4.015625 0.09375 C 3.515625 0.09375 3.039062 0 2.59375 -0.1875 C 2.15625 -0.375 1.769531 -0.640625 1.4375 -0.984375 C 1.09375 -1.328125 0.828125 -1.722656 0.640625 -2.171875 C 0.453125 -2.617188 0.359375 -3.09375 0.359375 -3.59375 C 0.359375 -4.09375 0.453125 -4.566406 0.640625 -5.015625 C 0.828125 -5.460938 1.09375 -5.859375 1.4375 -6.203125 C 1.769531 -6.546875 2.15625 -6.8125 2.59375 -7 C 3.039062 -7.1875 3.515625 -7.28125 4.015625 -7.28125 C 4.515625 -7.28125 4.984375 -7.1875 5.421875 -7 C 5.859375 -6.8125 6.25 -6.550781 6.59375 -6.21875 C 6.914062 -5.882812 7.171875 -5.492188 7.359375 -5.046875 C 7.554688 -4.609375 7.660156 -4.140625 7.671875 -3.640625 L 7.671875 -0.640625 C 7.671875 -0.441406 7.601562 -0.273438 7.46875 -0.140625 C 7.34375 -0.015625 7.179688 0.046875 6.984375 0.046875 C 6.796875 0.046875 6.640625 -0.015625 6.515625 -0.140625 C 6.398438 -0.273438 6.34375 -0.441406 6.34375 -0.640625 L 6.328125 -0.734375 C 6.003906 -0.472656 5.644531 -0.269531 5.25 -0.125 C 4.851562 0.0195312 4.441406 0.09375 4.015625 0.09375 Z M 4.015625 -1.25 C 4.335938 -1.25 4.640625 -1.304688 4.921875 -1.421875 C 5.203125 -1.546875 5.453125 -1.71875 5.671875 -1.9375 C 5.878906 -2.15625 6.039062 -2.40625 6.15625 -2.6875 C 6.28125 -2.96875 6.34375 -3.269531 6.34375 -3.59375 C 6.34375 -3.90625 6.28125 -4.203125 6.15625 -4.484375 C 6.039062 -4.773438 5.878906 -5.03125 5.671875 -5.25 C 5.453125 -5.457031 5.203125 -5.625 4.921875 -5.75 C 4.640625 -5.875 4.335938 -5.9375 4.015625 -5.9375 C 3.691406 -5.9375 3.390625 -5.875 3.109375 -5.75 C 2.828125 -5.625 2.582031 -5.457031 2.375 -5.25 C 2.15625 -5.03125 1.988281 -4.773438 1.875 -4.484375 C 1.757812 -4.203125 1.703125 -3.90625 1.703125 -3.59375 C 1.703125 -3.269531 1.757812 -2.96875 1.875 -2.6875 C 1.988281 -2.40625 2.15625 -2.15625 2.375 -1.9375 C 2.582031 -1.71875 2.828125 -1.546875 3.109375 -1.421875 C 3.390625 -1.304688 3.691406 -1.25 4.015625 -1.25 Z M 4.015625 -1.25 "/></g></g></g><g fill="#000000" fill-opacity="1"><g transform="translate(264.734682, 47.581277)"><g><path d="M 7.25 2.28125 C 7.0625 2.28125 6.90625 2.210938 6.78125 2.078125 C 6.65625 1.953125 6.59375 1.796875 6.59375 1.609375 L 6.59375 -1.046875 C 6.269531 -0.722656 5.910156 -0.472656 5.515625 -0.296875 C 5.128906 -0.117188 4.71875 -0.03125 4.28125 -0.03125 C 3.78125 -0.03125 3.304688 -0.125 2.859375 -0.3125 C 2.410156 -0.507812 2.019531 -0.773438 1.6875 -1.109375 C 1.34375 -1.441406 1.078125 -1.832031 0.890625 -2.28125 C 0.703125 -2.726562 0.609375 -3.203125 0.609375 -3.703125 L 0.609375 -6.609375 C 0.609375 -6.796875 0.671875 -6.953125 0.796875 -7.078125 C 0.929688 -7.210938 1.097656 -7.28125 1.296875 -7.28125 C 1.472656 -7.28125 1.628906 -7.21875 1.765625 -7.09375 C 1.898438 -6.957031 1.96875 -6.796875 1.96875 -6.609375 L 1.96875 -3.671875 C 1.96875 -3.367188 2.023438 -3.078125 2.140625 -2.796875 C 2.265625 -2.523438 2.4375 -2.28125 2.65625 -2.0625 C 2.863281 -1.851562 3.109375 -1.6875 3.390625 -1.5625 C 3.671875 -1.445312 3.96875 -1.390625 4.28125 -1.390625 C 4.582031 -1.390625 4.867188 -1.445312 5.140625 -1.5625 C 5.421875 -1.6875 5.671875 -1.851562 5.890625 -2.0625 C 6.109375 -2.28125 6.28125 -2.523438 6.40625 -2.796875 C 6.53125 -3.078125 6.59375 -3.367188 6.59375 -3.671875 L 6.59375 -6.609375 C 6.59375 -6.796875 6.65625 -6.957031 6.78125 -7.09375 C 6.914062 -7.21875 7.078125 -7.28125 7.265625 -7.28125 C 7.429688 -7.28125 7.585938 -7.21875 7.734375 -7.09375 C 7.867188 -6.957031 7.9375 -6.796875 7.9375 -6.609375 L 7.9375 1.609375 C 7.9375 1.796875 7.867188 1.953125 7.734375 2.078125 C 7.597656 2.210938 7.4375 2.28125 7.25 2.28125 Z M 7.25 2.28125 "/></g></g></g><g fill="#000000" fill-opacity="1"><g transform="translate(272.41245, 47.581277)"><g><path d="M 1.578125 0 L 1.5625 0 C 1.40625 -0.03125 1.269531 -0.101562 1.15625 -0.21875 C 1.050781 -0.34375 1 -0.488281 1 -0.65625 L 1 -9.28125 C 1 -9.476562 1.0625 -9.640625 1.1875 -9.765625 C 1.320312 -9.890625 1.484375 -9.953125 1.671875 -9.953125 C 1.859375 -9.953125 2.015625 -9.890625 2.140625 -9.765625 C 2.273438 -9.640625 2.34375 -9.476562 2.34375 -9.28125 L 2.34375 -1.328125 L 6.53125 -1.328125 C 6.71875 -1.328125 6.875 -1.257812 7 -1.125 C 7.125 -1 7.1875 -0.84375 7.1875 -0.65625 C 7.1875 -0.46875 7.125 -0.3125 7 -0.1875 C 6.875 -0.0625 6.71875 0 6.53125 0 Z M 1.578125 0 "/></g></g></g><g fill="#000000" fill-opacity="1"><g transform="translate(279.388533, 47.581277)"><g><path d="M 4.015625 0.09375 C 3.515625 0.09375 3.039062 0 2.59375 -0.1875 C 2.15625 -0.375 1.769531 -0.640625 1.4375 -0.984375 C 1.09375 -1.328125 0.828125 -1.722656 0.640625 -2.171875 C 0.453125 -2.617188 0.359375 -3.09375 0.359375 -3.59375 C 0.359375 -4.09375 0.453125 -4.566406 0.640625 -5.015625 C 0.828125 -5.460938 1.09375 -5.859375 1.4375 -6.203125 C 1.769531 -6.546875 2.15625 -6.8125 2.59375 -7 C 3.039062 -7.1875 3.515625 -7.28125 4.015625 -7.28125 C 4.515625 -7.28125 4.984375 -7.1875 5.421875 -7 C 5.859375 -6.8125 6.25 -6.550781 6.59375 -6.21875 C 6.914062 -5.882812 7.171875 -5.492188 7.359375 -5.046875 C 7.554688 -4.609375 7.660156 -4.140625 7.671875 -3.640625 L 7.671875 -0.640625 C 7.671875 -0.441406 7.601562 -0.273438 7.46875 -0.140625 C 7.34375 -0.015625 7.179688 0.046875 6.984375 0.046875 C 6.796875 0.046875 6.640625 -0.015625 6.515625 -0.140625 C 6.398438 -0.273438 6.34375 -0.441406 6.34375 -0.640625 L 6.328125 -0.734375 C 6.003906 -0.472656 5.644531 -0.269531 5.25 -0.125 C 4.851562 0.0195312 4.441406 0.09375 4.015625 0.09375 Z M 4.015625 -1.25 C 4.335938 -1.25 4.640625 -1.304688 4.921875 -1.421875 C 5.203125 -1.546875 5.453125 -1.71875 5.671875 -1.9375 C 5.878906 -2.15625 6.039062 -2.40625 6.15625 -2.6875 C 6.28125 -2.96875 6.34375 -3.269531 6.34375 -3.59375 C 6.34375 -3.90625 6.28125 -4.203125 6.15625 -4.484375 C 6.039062 -4.773438 5.878906 -5.03125 5.671875 -5.25 C 5.453125 -5.457031 5.203125 -5.625 4.921875 -5.75 C 4.640625 -5.875 4.335938 -5.9375 4.015625 -5.9375 C 3.691406 -5.9375 3.390625 -5.875 3.109375 -5.75 C 2.828125 -5.625 2.582031 -5.457031 2.375 -5.25 C 2.15625 -5.03125 1.988281 -4.773438 1.875 -4.484375 C 1.757812 -4.203125 1.703125 -3.90625 1.703125 -3.59375 C 1.703125 -3.269531 1.757812 -2.96875 1.875 -2.6875 C 1.988281 -2.40625 2.15625 -2.15625 2.375 -1.9375 C 2.582031 -1.71875 2.828125 -1.546875 3.109375 -1.421875 C 3.390625 -1.304688 3.691406 -1.25 4.015625 -1.25 Z M 4.015625 -1.25 "/></g></g></g><g fill="#000000" fill-opacity="1"><g transform="translate(286.998396, 47.581277)"><g><path d="M 4.359375 0.078125 C 3.859375 0.078125 3.382812 -0.015625 2.9375 -0.203125 C 2.488281 -0.390625 2.097656 -0.65625 1.765625 -1 C 1.421875 -1.332031 1.148438 -1.722656 0.953125 -2.171875 C 0.765625 -2.617188 0.671875 -3.09375 0.671875 -3.59375 L 0.671875 -9.25 C 0.671875 -9.425781 0.738281 -9.585938 0.875 -9.734375 C 1 -9.867188 1.15625 -9.9375 1.34375 -9.9375 C 1.53125 -9.9375 1.6875 -9.867188 1.8125 -9.734375 C 1.9375 -9.609375 2 -9.445312 2 -9.25 L 2 -5.875 C 2.1875 -6.28125 2.5 -6.613281 2.9375 -6.875 C 3.15625 -7 3.382812 -7.097656 3.625 -7.171875 C 3.863281 -7.242188 4.109375 -7.28125 4.359375 -7.28125 C 4.859375 -7.28125 5.332031 -7.179688 5.78125 -6.984375 C 6.226562 -6.796875 6.625 -6.535156 6.96875 -6.203125 C 7.300781 -5.859375 7.5625 -5.460938 7.75 -5.015625 C 7.9375 -4.566406 8.03125 -4.09375 8.03125 -3.59375 C 8.03125 -3.09375 7.9375 -2.617188 7.75 -2.171875 C 7.5625 -1.722656 7.300781 -1.332031 6.96875 -1 C 6.625 -0.65625 6.226562 -0.390625 5.78125 -0.203125 C 5.332031 -0.015625 4.859375 0.078125 4.359375 0.078125 Z M 4.359375 -1.25 C 4.679688 -1.25 4.984375 -1.304688 5.265625 -1.421875 C 5.554688 -1.546875 5.8125 -1.71875 6.03125 -1.9375 C 6.25 -2.15625 6.414062 -2.40625 6.53125 -2.6875 C 6.644531 -2.96875 6.703125 -3.269531 6.703125 -3.59375 C 6.703125 -3.914062 6.644531 -4.21875 6.53125 -4.5 C 6.414062 -4.78125 6.25 -5.03125 6.03125 -5.25 C 5.8125 -5.46875 5.554688 -5.632812 5.265625 -5.75 C 4.984375 -5.875 4.679688 -5.9375 4.359375 -5.9375 C 4.035156 -5.9375 3.726562 -5.875 3.4375 -5.75 C 3.15625 -5.632812 2.90625 -5.46875 2.6875 -5.25 C 2.476562 -5.03125 2.3125 -4.78125 2.1875 -4.5 C 2.0625 -4.21875 2 -3.914062 2 -3.59375 C 2 -3.269531 2.0625 -2.96875 2.1875 -2.6875 C 2.3125 -2.40625 2.476562 -2.15625 2.6875 -1.9375 C 2.90625 -1.71875 3.15625 -1.546875 3.4375 -1.421875 C 3.726562 -1.304688 4.035156 -1.25 4.359375 -1.25 Z M 4.359375 -1.25 "/></g></g></g><g fill="#000000" fill-opacity="1"><g transform="translate(294.608259, 47.581277)"><g><path d="M 4.15625 0 L 1.03125 0 C 0.851562 0 0.707031 -0.0625 0.59375 -0.1875 C 0.476562 -0.3125 0.421875 -0.472656 0.421875 -0.671875 C 0.421875 -0.867188 0.472656 -1.023438 0.578125 -1.140625 C 0.691406 -1.265625 0.84375 -1.328125 1.03125 -1.328125 L 4.046875 -1.328125 C 4.148438 -1.328125 4.257812 -1.34375 4.375 -1.375 C 4.488281 -1.414062 4.585938 -1.472656 4.671875 -1.546875 C 4.878906 -1.710938 4.984375 -1.929688 4.984375 -2.203125 C 4.984375 -2.472656 4.882812 -2.679688 4.6875 -2.828125 C 4.5 -2.960938 4.285156 -3.03125 4.046875 -3.03125 L 2.65625 -3.03125 C 2.351562 -3.03125 2.070312 -3.085938 1.8125 -3.203125 C 1.5625 -3.316406 1.335938 -3.476562 1.140625 -3.6875 C 0.953125 -3.882812 0.804688 -4.113281 0.703125 -4.375 C 0.597656 -4.644531 0.546875 -4.921875 0.546875 -5.203125 C 0.546875 -5.484375 0.597656 -5.75 0.703125 -6 C 0.816406 -6.257812 0.96875 -6.484375 1.15625 -6.671875 C 1.351562 -6.867188 1.578125 -7.019531 1.828125 -7.125 C 2.085938 -7.226562 2.363281 -7.28125 2.65625 -7.28125 L 5.265625 -7.28125 C 5.453125 -7.28125 5.609375 -7.222656 5.734375 -7.109375 C 5.867188 -6.992188 5.9375 -6.832031 5.9375 -6.625 C 5.9375 -6.4375 5.875 -6.28125 5.75 -6.15625 C 5.625 -6.019531 5.472656 -5.953125 5.296875 -5.953125 L 2.65625 -5.953125 C 2.445312 -5.953125 2.265625 -5.875 2.109375 -5.71875 C 1.953125 -5.5625 1.875 -5.375 1.875 -5.15625 C 1.875 -4.925781 1.953125 -4.742188 2.109375 -4.609375 C 2.273438 -4.453125 2.457031 -4.375 2.65625 -4.375 L 4.171875 -4.375 C 4.472656 -4.375 4.753906 -4.316406 5.015625 -4.203125 C 5.285156 -4.085938 5.515625 -3.925781 5.703125 -3.71875 C 5.890625 -3.519531 6.035156 -3.285156 6.140625 -3.015625 C 6.253906 -2.742188 6.3125 -2.46875 6.3125 -2.1875 C 6.3125 -1.570312 6.109375 -1.0625 5.703125 -0.65625 C 5.503906 -0.445312 5.269531 -0.285156 5 -0.171875 C 4.738281 -0.0546875 4.457031 0 4.15625 0 Z M 4.15625 0 "/></g></g></g></g></g></svg>